<svg xmlns="http://www.w3.org/2000/svg" width="100%" viewBox="0 0 256 256" height="150" xmlns:v="https://vecta.io/nano"><path d="M1 191.428c2.158.207 4.455.555 6.451 1.523 16.6 8.051 32.98 16.693 51.045 21.104 12.187 2.976 24.435 5.947 36.825 7.77 12.291 1.808 24.794 3.008 37.203 2.997 24.149-.021 47.819-4.2 70.967-11.046 7.815-2.312 15.375-5.485 23.182-7.831 2.127-.639 6.222-.474 6.814.669 1.412 2.726.551 5.356-2.82 7.636-20.415 13.811-42.86 22.707-66.819 27.605-19.433 3.973-39.398 3.358-58.891 1.772-32.399-2.636-61.543-15.49-87.981-34.261-5.452-3.871-10.292-8.603-15.694-12.652C1 195.286 1 193.571 1 191.428zm256 15.104c-.666 1.117-1.737 1.661-1.937 2.43-2.134 8.235-5.993 15.547-11.54 21.958-1.049 1.213-2.362 2.356-3.79 3.031-1.112.525-2.592.272-3.909.365-.06-1.173-.457-2.452-.125-3.502l6.325-19.14c.744-2.274 1.519-4.571 1.914-6.919.652-3.875-3.131-6.79-9.168-6.702-7.409.108-14.812.623-22.218.937-1.445.061-2.895.009-4.343.009l-.874-1.24c1.923-1.925 3.509-4.577 5.826-5.652 12.158-5.636 24.88-7.417 38.037-4.063 1.819.464 3.447 1.676 5.482 2.249.318 5.062.318 10.417.318 16.239zM112.712 57.718c-1.268 5.268-3.673 8.206-9.369 7.326-7.867-1.216-15.823-1.895-23.657-3.277-3.46-.611-4.363-3.874-3.596-6.924 6.16-24.52 18.585-34.785 42.687-39.524 15.331-3.015 31.307-3.403 46.475 2.685 15.558 6.245 25.177 17.884 25.641 35.368.481 18.142.124 36.307.101 54.462-.015 11.712 1.32 22.938 9.533 32.295 3.088 3.518 3.006 7.025-1.271 10.243-5.986 4.504-11.49 9.645-17.419 14.23-4.633 3.583-8.465 2.794-12.972-1.096-4.266-3.682-9.016-6.803-13.553-10.17l1.694-2.804c-2.56 2.146-4.988 4.478-7.702 6.406-13.301 9.452-27.958 12.328-44.165 10.217-15.745-2.051-26.828-9.567-31.149-24.826-5.185-18.307-2.629-35.667 11.146-49.756 8.665-8.863 20.079-13.289 32.128-15.488 11.01-2.009 22.149-3.313 34.432-5.103-.914-6.174-1.089-13.121-3.136-19.465-1.848-5.728-6.98-8.194-13.433-8.675-9.818-.731-16.625 3.271-21.643 11.21-.405.641-.361 1.565-.771 2.666m9.405 44.635c-4.839 4.248-8.505 9.032-9.835 15.69-1.5 7.504 2.376 18.945 8.194 21.769 6.552 3.18 17.9-.051 22.344-6.223 8.195-11.38 8.975-24.217 7.773-39.002l-28.476 7.766z" fill="#fff"/></svg>