<svg xmlns="http://www.w3.org/2000/svg" width="100%" viewBox="0 0 512 512" height="150" xmlns:v="https://vecta.io/nano"><path fill="#fff" d="M513 85l-.343 343.236c-.78.986-1.442 1.755-1.623 2.624-4.151 19.965-13.878 37.09-28.022 51.387-14.399 14.554-31.779 24.475-52.057 28.819-.756.162-1.309 1.268-1.956 1.935-114.355 0-228.711 0-343.236-.343-.986-.78-1.755-1.442-2.625-1.623-19.971-4.153-37.102-13.883-51.397-28.035-14.548-14.403-24.488-31.777-28.808-52.067-.159-.747-1.268-1.292-1.935-1.932l.409-343.538c.797-.883 1.448-1.244 1.537-1.712 3.85-20.277 13.759-37.499 28.001-51.948C45.332 17.207 62.74 7.282 83.04 2.935 83.797 2.773 84.351 1.666 85 1l343.236.343c.986.78 1.755 1.442 2.624 1.623 19.965 4.151 37.09 13.878 51.387 28.022 14.554 14.399 24.475 31.779 28.819 52.057.162.755 1.268 1.309 1.935 1.956m-278.015 25.52l-11.555 1.737c-12.581 2.211-25.099 4.891-37.752 6.539-4.875.635-5.769 2.259-5.762 6.671L180 341.411V347c-10.479 0-20.465-.368-30.41.105-9.674.46-18.972 2.023-27.421 8.004-19.333 13.688-21.869 41.88-5.713 58.905 8.886 9.364 20.19 12.565 32.472 12.885 7.9.205 15.826-.836 23.74-.841 15.531-.009 32.722-14.076 35.335-30.039.812-4.96 1.891-9.964 1.91-14.952L210 260.598v-66.516l143.739-24.762V317c-10.228 0-20.214-.375-30.16.107-9.671.468-18.967 2.009-27.421 8.006-19.314 13.699-21.862 41.891-5.692 58.908 8.887 9.352 20.179 12.586 32.473 12.881 7.902.19 15.823-.72 23.741-.863 9.806-.178 17.715-4.484 24.655-10.912 9.623-8.913 12.575-20.635 12.594-33.072L384 90.123V84.82l-19.042 3.185-32.045 5.542-32.069 5.459-32.033 5.59-33.825 5.924z"/></svg>