<svg xmlns="http://www.w3.org/2000/svg" xmlns:xlink="http://www.w3.org/1999/xlink" width="100%" viewBox="0 0 512 512" height="150" xmlns:v="https://vecta.io/nano"><g fill="#fff"><path d="M513 179.531l-93.645.469v-30h93.176c.469 9.688.469 19.375.469 29.531zM1 334.469L94.645 334v30H1.469C1 354.312 1 344.625 1 334.469zm512 29.062l-93.645.469v-30h93.176c.469 9.688.469 19.375.469 29.531zM1 371.469L94.645 371v29H1.469C1 390.646 1 381.292 1 371.469z"/><use xlink:href="#B"/><use xlink:href="#B" y="73"/><path d="M1 298.469L94.645 298v29H1.469C1 317.646 1 308.292 1 298.469z"/><use xlink:href="#B" y="-37"/><path d="M1 261.469L94.645 261v29H1.469C1 280.646 1 271.292 1 261.469z"/><use xlink:href="#B" y="-74"/><path d="M1 224.469L94.645 224v29H1.469C1 243.646 1 234.292 1 224.469z"/><use xlink:href="#B" y="-111"/><use xlink:href="#B" y="-184"/><path d="M347 364c-9.83 0-19.163-.131-28.488.067-3.525.075-4.661-1.12-4.576-4.607.201-8.3.065-16.609.065-25.185h94.718V364H347zm-43-209.863v25.621h-93.76V150h3.907l85.493-.026c2.641-.004 5.207-.286 4.36 4.163zM116.019 334h82.697v29.719h-93.433V334h10.736zM247 364h-36.713v-29.715h93.426V364H247zm103-37h-35.713v-28.715h94.426V327H350zm40.999-37H314.29v-28.713h94.421V290H391zm-62.993-66h80.705v28.714h-94.424V224h13.719zM354 400h-39.713v-28.715h94.425V400H354zm-170.004 0h-78.707v-28.713h93.422V400h-14.715zM304 385.002v14.712h-93.713v-28.43H304v13.718zM248 327h-37.713v-28.715h93.425V327H248zm-139.834 0c-3.366.489-3.196-1.385-3.186-3.33l.02-25.324h93.656V327h-90.49zm106.944-66h88.637v28.75H210.25V261h4.86zM284 224h19.714v28.716h-93.428V224H284zm-54.999-8h-18.714v-28.716h93.428V216h-74.713z"/></g><defs ><path id="B" d="M513 326.531l-93.645.469v-29h93.176c.469 9.354.469 18.708.469 28.531z"/></defs></svg>