<?xml version="1.0" standalone="yes"?>
<svg xmlns="http://www.w3.org/2000/svg" width="512" height="512">
<path style="fill:#ffffff; stroke:none;" d="M266 112.653C257.914 115.192 256.013 122.501 256 130L256 176L256 330L256 372C256 378.144 254.598 386.356 257.457 391.996C264.373 405.641 293.215 400 306 400L403 400C422.386 400 442.473 402.053 461 395.305C520.062 373.791 529.827 290.031 479 254.209C468.017 246.468 454.485 241.018 441 240.09C435.662 239.722 420.653 242.842 416.742 239.307C413.335 236.229 413.399 226.359 412.424 222C409.774 210.162 405.298 198.764 399.742 188C380.806 151.317 345.12 124.428 305 115.35C293.642 112.78 277.46 109.054 266 112.653M202 144.653C196.936 146.243 193.038 150.773 192.214 156C189.907 170.625 192 187.188 192 202L192 358C192 373.22 187.592 407.641 214 399.347C219.064 397.757 222.962 393.227 223.786 388C226.093 373.375 224 356.812 224 342L224 186C224 170.78 228.408 136.359 202 144.653M74 208.653C58.5388 213.508 64 240.6 64 253L64 370C64 384.271 64.7442 406.023 86 399.347C101.461 394.492 96 367.4 96 355L96 238C96 223.729 95.2558 201.977 74 208.653M138 208.653C122.539 213.508 128 240.6 128 253L128 370C128 384.271 128.744 406.023 150 399.347C165.461 394.492 160 367.4 160 355L160 238C160 223.729 159.256 201.977 138 208.653M10 256.653C-2.9119 260.708 0 276.562 0 287L0 345C0 353.821 -1.58505 364.388 0.39429 373C2.56406 382.441 13.4291 386.039 22 383.347C34.9119 379.292 32 363.438 32 353L32 295C32 286.179 33.585 275.612 31.6057 267C29.4359 257.559 18.5709 253.961 10 256.653z"/>
</svg>
