<?xml version="1.0" standalone="yes"?>
<svg xmlns="http://www.w3.org/2000/svg" width="512" height="512">
<path style="fill:#ffffff; stroke:none;" d="M251 176C194.526 175.994 134.397 151.654 90 117.765C76.7708 107.667 64.7509 96.7698 53 85C47.3322 79.3231 42.1748 70.6325 35 67C15.2796 100.787 16.6755 143.957 37.1937 177C43.8666 187.746 54.0734 200.95 66 206L66 207L20 194C20 238.639 51.9237 293.715 101 298L101 299L57 300C63.2705 341.865 113.199 373.67 153 374L153 375C139.52 380.698 127.418 391.25 114 397.742C81.6704 413.383 35.7312 424.507 0 416C5.99078 426.635 28.0654 434.154 39 438.85C78.8016 455.943 119.775 464 163 464C289.288 464 398.388 386.806 441.947 268C450.645 244.276 456.397 219.148 458.83 194C459.965 182.271 456.507 164.853 460.603 154.015C463.015 147.633 472.101 143.239 477 138.829C489.374 127.692 505.894 112.874 512 97L480 107.572L455 113L455 112C474.591 102.68 494.743 76.7463 498 55C478.589 63.1243 455.269 80.4191 433.17 79.794C427.501 79.6336 419.773 69.5876 415 66.3441C402.707 57.9898 388.721 51.7494 374 49.2855C326.564 41.3459 276.026 65.151 257.453 111C248.574 132.919 249.187 153.033 251 176z"/>
</svg>
