<?xml version="1.0" encoding="UTF-8" standalone="no"?>
<!DOCTYPE svg PUBLIC "-//W3C//DTD SVG 1.1//EN" "http://www.w3.org/Graphics/SVG/1.1/DTD/svg11.dtd">
<svg width="100%" height="100%" viewBox="0 0 64 64" version="1.1" xmlns="http://www.w3.org/2000/svg" xmlns:xlink="http://www.w3.org/1999/xlink" xml:space="preserve" xmlns:serif="http://www.serif.com/" style="fill-rule:evenodd;clip-rule:evenodd;stroke-linecap:round;stroke-linejoin:round;stroke-miterlimit:1.5;">
    <rect id="ArtBoard1" x="0" y="0" width="64" height="64" style="fill:none;"/>
    <clipPath id="_clip1">
        <rect id="ArtBoard11" serif:id="ArtBoard1" x="0" y="0" width="64" height="64"/>
    </clipPath>
    <g clip-path="url(#_clip1)">
        <g transform="matrix(1.01748,0,0,1.01618,-1.11872,-1.03539)">
            <path d="M32.55,1.019C49.908,1.019 64,15.129 64,32.509C64,49.89 49.908,64 32.55,64C15.192,64 1.1,49.89 1.1,32.509C1.1,15.129 15.192,1.019 32.55,1.019ZM32.55,3.971C16.819,3.971 4.048,16.759 4.048,32.509C4.048,48.26 16.819,61.048 32.55,61.048C48.28,61.048 61.052,48.26 61.052,32.509C61.052,16.759 48.28,3.971 32.55,3.971Z" style="fill:white;"/>
        </g>
        <g transform="matrix(1.15814,0,0,1,-5.06043,0)">
            <path d="M32,1.431C14.745,22.61 14.667,41.04 32,62.529" style="fill:none;stroke:white;stroke-width:2.77px;"/>
        </g>
        <g transform="matrix(1.15134,0,0,1,-4.84276,0)">
            <path d="M32,62.529C49.442,40.942 49.378,22.513 32,1.431" style="fill:none;stroke:white;stroke-width:2.78px;"/>
        </g>
        <path d="M1.506,32L62.451,32" style="fill:none;stroke:white;stroke-width:3px;"/>
        <path d="M8.967,11.981C24.443,18.066 39.734,18.059 54.84,11.981" style="fill:none;stroke:white;stroke-width:3px;"/>
        <path d="M8.967,52.035C24.325,45.451 39.616,45.432 54.84,52.035" style="fill:none;stroke:white;stroke-width:3px;"/>
        <path d="M32,1.431L31.904,62.529" style="fill:none;stroke:white;stroke-width:3px;"/>
    </g>
</svg>
