<?xml version="1.0" standalone="yes"?>
<svg xmlns="http://www.w3.org/2000/svg" width="512" height="512">
<path fill-rule="evenodd" style="fill:#ffffff; stroke:none;" d="M205 83.4244C172.048 87.7509 137.25 85.4739 104 87.9113C83.8347 89.3894 62.5137 90.6776 46 103.669C24.2475 120.782 20.9881 149.199 18.9144 175C14.6887 227.574 12.427 281.504 19.4244 334C22.6906 358.504 25.4029 384.059 47 399.841C61.46 410.408 78.7169 412.316 96 414.166C118.23 416.546 140.644 417.738 163 418.004C224.729 418.738 286.246 420.743 348 418.039C375.692 416.827 403.513 416.839 431 412.576C438.79 411.367 446.803 410.044 454 406.677C484.182 392.556 488.992 361.644 492.166 332C497.096 285.948 497.255 239.178 494.09 193C492.373 167.953 492.648 135.761 476.486 115.001C458.316 91.6611 431.077 90.4175 404 87.8302C359.325 83.5615 313.906 83 269 83C248.112 83 225.706 80.7057 205 
83.4244z M208 181L208 322C220.82 317.943 233.44 308.453 245 301.603C273.068 284.971 302.059 264.902 332 252C311.838 235.12 283.774 223.793 261 210.576C244.565 201.037 226.223 186.36 208 181z"/>
</svg>
